<svg width="24" height="24" viewBox="0 0 24 24" fill="none" xmlns="http://www.w3.org/2000/svg">
<path d="M12.001 9.55C12.918 8.613 14.112 8 15.501 8C16.9597 8 18.3586 8.57946 19.3901 9.61091C20.4215 10.6424 21.001 12.0413 21.001 13.5V21H19.001V13.5C19.001 12.5717 18.6323 11.6815 17.9759 11.0251C17.3195 10.3687 16.4293 10 15.501 10C14.5727 10 13.6825 10.3687 13.0261 11.0251C12.3698 11.6815 12.001 12.5717 12.001 13.5V21H10.001V8.5H12.001V9.55ZM5.00101 6.5C4.60318 6.5 4.22165 6.34196 3.94035 6.06066C3.65904 5.77936 3.50101 5.39782 3.50101 5C3.50101 4.60218 3.65904 4.22064 3.94035 3.93934C4.22165 3.65804 4.60318 3.5 5.00101 3.5C5.39883 3.5 5.78036 3.65804 6.06167 3.93934C6.34297 4.22064 6.50101 4.60218 6.50101 5C6.50101 5.39782 6.34297 5.77936 6.06167 6.06066C5.78036 6.34196 5.39883 6.5 5.00101 6.5ZM4.00101 8.5H6.00101V21H4.00101V8.5Z" fill="white"/>
</svg>
